<svg width="272" height="273" viewBox="0 0 272 273" fill="none" xmlns="http://www.w3.org/2000/svg">
<path d="M153.968 103.014C152.381 102.802 151.24 101.381 151.376 99.7857L154.03 68.6699C154.273 65.8283 150.787 64.2835 148.844 66.372L120.503 96.8485C119.835 97.5663 118.859 97.9127 117.888 97.7764L86.1219 93.3146C83.6946 92.9737 81.905 95.5296 83.0557 97.6938L95.7501 121.569C96.3457 122.689 96.1722 124.063 95.3169 125L63.2746 160.102C61.1577 162.421 63.5751 166.022 66.5232 164.941L106.877 150.143C108.309 149.618 109.906 150.25 110.591 151.612L136.65 203.475C138.01 206.182 142.069 205.396 142.32 202.377L147.685 137.931C147.784 136.75 148.569 135.737 149.689 135.347L206.108 115.714C209.092 114.676 208.651 110.326 205.52 109.907L153.968 103.014ZM138.142 123.649C137.083 124.045 136.337 125.002 136.211 126.125L134.114 144.837C133.794 147.693 130.03 148.508 128.557 146.041L120.544 132.618C119.805 131.38 118.288 130.843 116.934 131.34L103.991 136.094C101.051 137.174 98.6308 133.593 100.729 131.268L110.48 120.466C111.377 119.473 111.507 118.006 110.8 116.87L105.787 108.823C104.453 106.682 106.196 103.951 108.699 104.259L121.893 105.882C122.855 106 123.815 105.647 124.47 104.933L134.991 93.4654C136.942 91.3393 140.476 92.9237 140.187 95.7946L139.124 106.328C138.964 107.918 140.077 109.354 141.656 109.595L154.462 111.55C157.519 112.017 157.956 116.244 155.059 117.326L138.142 123.649Z" fill="#929292"/>
</svg>
